<svg xmlns="http://www.w3.org/2000/svg" viewBox="0 0 99 99">
  <path fill-rule="evenodd" d="M49.5 0A49.5 49.5 0 0 0 .07 47.5H22.9v4H.1A49.5 49.5 0 0 0 49.5 99a49.5 49.5 0 0 0 49.43-47.5H76.1v-4h22.8A49.5 49.5 0 0 0 49.5 0Zm0 4.5a45 45 0 0 1 44.42 38H56.5V13.2a37 37 0 0 1 26.46 20.6H64.9v-8.22a28.5 28.5 0 0 1 5.53 4.62h5.8A33 33 0 0 0 60.2 18.32V38.5h29.27A41.5 41.5 0 0 0 51.5 8.1v14.8h-4V8.1A41.5 41.5 0 0 0 9.49 38.5H38.8V18.34A33 33 0 0 0 22.78 30.2h5.8a28.5 28.5 0 0 1 5.52-4.6v8.2H16.04A37 37 0 0 1 42.5 13.22V42.5H5.1a45 45 0 0 1 44.4-38Zm-2 23h4v20h20v4h-20v20h-4v-20h-20v-4h20zm-42.42 29H42.5v29.3a37 37 0 0 1-26.46-20.6H34.1v8.22a28.5 28.5 0 0 1-5.53-4.62h-5.8A33 33 0 0 0 38.8 80.68V60.5H9.53A41.5 41.5 0 0 0 47.5 90.9V76.1h4v14.8a41.5 41.5 0 0 0 38.01-30.4H60.2v20.16A33 33 0 0 0 76.22 68.8h-5.8a28.5 28.5 0 0 1-5.52 4.6v-8.2h18.06A37 37 0 0 1 56.5 85.78V56.5h37.4a45 45 0 0 1-44.4 38 45 45 0 0 1-44.42-38Z"/>
</svg>
